<svg xmlns="http://www.w3.org/2000/svg" width="98.166" height="54.378" viewBox="0 0 98.166 54.378">
  <g id="_021-car-17" data-name="021-car-17" transform="translate(1 1.009)">
    <g id="Group_1866" data-name="Group 1866" transform="translate(7.741 0)">
      <g id="Group_1865" data-name="Group 1865">
        <path id="Path_11438" data-name="Path 11438" d="M126.637,137.428H108.165q-8.29-20.639-34.011-21.69c-15.8-.549-30.68,5.053-31.532,5.375a2.663,2.663,0,0,0-1.722,2.5V158.1a2.666,2.666,0,0,0,2.669,2.669h5.962a9.98,9.98,0,0,0,19.229,0h33.5a9.98,9.98,0,0,0,19.229,0h5.167a2.666,2.666,0,0,0,2.669-2.669v-18A2.694,2.694,0,0,0,126.637,137.428Zm-51.65-16.277c13.911.814,22.806,6.454,27.33,16.277H74.987ZM46.237,125.5a90.479,90.479,0,0,1,23.412-4.391v16.315H46.237Zm12.889,37.247a4.637,4.637,0,1,1,4.637-4.637A4.645,4.645,0,0,1,59.126,162.751Zm52.729,0a4.637,4.637,0,1,1,4.637-4.637A4.645,4.645,0,0,1,111.856,162.751Zm12.113-7.325h-2.5a9.98,9.98,0,0,0-19.229,0h-33.5a9.98,9.98,0,0,0-19.229,0H46.237V142.765h77.731Z" transform="translate(-40.9 -115.7)" fill="#0984e3" stroke="#fff" stroke-width="2"/>
      </g>
    </g>
    <g id="Group_1868" data-name="Group 1868" transform="translate(0 14.573)">
      <g id="Group_1867" data-name="Group 1867" transform="translate(0 0)">
        <path id="Path_11439" data-name="Path 11439" d="M2.669,192.7A2.666,2.666,0,0,0,0,195.369v12.984a2.669,2.669,0,0,0,5.337,0V195.369A2.666,2.666,0,0,0,2.669,192.7Z" transform="translate(0 -192.7)" fill="#0984e3" stroke="#fff" stroke-width="2"/>
      </g>
    </g>
  </g>
</svg>
