<svg xmlns="http://www.w3.org/2000/svg" width="98.474" height="72.936" viewBox="0 0 98.474 72.936">
  <g id="_037-delivery-truck-9" data-name="037-delivery-truck-9" transform="translate(1 1)">
    <g id="Group_1918" data-name="Group 1918" transform="translate(0 0)">
      <path id="Path_11469" data-name="Path 11469" d="M2.7,67.25H63.36a2.674,2.674,0,0,1,2.677,2.677V82.706h21.3a2.716,2.716,0,0,1,2.468,1.633L96.265,99.4a2.77,2.77,0,0,1,.209,1.044v27.4a2.674,2.674,0,0,1-2.677,2.677H88.575a10.362,10.362,0,0,1-20.012,0H37.12a10.362,10.362,0,0,1-20.012,0H2.677A2.674,2.674,0,0,1,0,127.838V69.927A2.7,2.7,0,0,1,2.7,67.25Zm75.873,65.582a5.013,5.013,0,1,0-5.013-5.013A5.02,5.02,0,0,0,78.569,132.832Zm-12.532-7.671h2.544a10.355,10.355,0,0,1,20.012,0h2.525V108.49H66.037Zm0-22.044H91.119V100.99L85.575,88.06H66.037Zm-38.9,29.715a5.013,5.013,0,1,0-5.013-5.013A5.02,5.02,0,0,0,27.133,132.832Zm-10.006-7.671a10.355,10.355,0,0,1,20.012,0H60.683v-10.69H5.392v10.69ZM5.354,109.117H60.683V98.9H55.329a2.677,2.677,0,1,1,0-5.354h5.354V88.193H49.955a2.677,2.677,0,0,1,0-5.354H60.664V72.6H5.354Z" transform="translate(0 -67.25)" fill="#0984e3" stroke="#fff" stroke-width="2"/>
    </g>
  </g>
</svg>
