<svg xmlns="http://www.w3.org/2000/svg" width="100.416" height="53.9" viewBox="0 0 100.416 53.9">
  <g id="_047-cabriolet-1" data-name="047-cabriolet-1" transform="translate(1 -119.1)">
    <g id="Group_1946" data-name="Group 1946" transform="translate(0 120.1)">
      <path id="Path_11487" data-name="Path 11487" d="M95.86,140.918l-15.88-1.3L70.2,121.533a2.717,2.717,0,0,0-2.4-1.433H47.31a2.727,2.727,0,0,0-2.731,2.731v15.841H7.959A7.971,7.971,0,0,0,0,146.631v14.931a2.727,2.727,0,0,0,2.731,2.731H8.54a10.432,10.432,0,0,0,20.14,0H69.736a10.432,10.432,0,0,0,20.14,0h5.81a2.727,2.727,0,0,0,2.731-2.731V143.629A2.787,2.787,0,0,0,95.86,140.918ZM50.041,125.561H66.173l7.475,13.827-23.607-.5V125.561Zm-31.45,40.978a4.977,4.977,0,1,1,4.977-4.977A4.975,4.975,0,0,1,18.591,166.539Zm61.2,0a4.977,4.977,0,1,1,4.977-4.977A4.975,4.975,0,0,1,79.787,166.539Zm13.13-7.708H89.837a10.432,10.432,0,0,0-20.14,0H28.661a10.432,10.432,0,0,0-20.14,0H5.461v-12.2a2.5,2.5,0,0,1,2.5-2.5c0-.368,70.2.445,70.2.813l14.757,1.2Z" transform="translate(0 -120.1)" fill="#0984e3" stroke="#fff" stroke-width="2"/>
    </g>
  </g>
</svg>
