<svg xmlns="http://www.w3.org/2000/svg" width="101.611" height="57.895" viewBox="0 0 101.611 57.895">
  <g id="_084-car-5" data-name="084-car-5" transform="translate(1 -110.45)">
    <g id="Group_2096" data-name="Group 2096" transform="translate(0 111.45)">
      <path id="Path_11572" data-name="Path 11572" d="M79.155,135.161,66.211,119.393a21.592,21.592,0,0,0-16.788-7.943H9.885A9.893,9.893,0,0,0,0,121.335v35.557a2.762,2.762,0,0,0,2.765,2.765H9.728a10.453,10.453,0,0,0,20.162,0H69.722a10.453,10.453,0,0,0,20.162,0h6.962a2.762,2.762,0,0,0,2.765-2.765A21.794,21.794,0,0,0,79.155,135.161ZM50.168,117.02A16.108,16.108,0,0,1,61.936,122.9l10.022,12.219H50.168ZM5.531,121.335a4.369,4.369,0,0,1,4.354-4.354H44.638v18.141H5.531Zm14.278,40.48a4.923,4.923,0,1,1,4.923-4.923A4.926,4.926,0,0,1,19.808,161.815Zm60.014,0a4.923,4.923,0,1,1,4.923-4.923A4.926,4.926,0,0,1,79.822,161.815ZM89.9,154.126h0a10.453,10.453,0,0,0-20.161,0H29.889a10.453,10.453,0,0,0-20.162,0h-4.2V140.653H77.8a16.312,16.312,0,0,1,16.063,13.474Z" transform="translate(0 -111.45)" fill="#0984e3" stroke="#fff" stroke-width="2"/>
    </g>
  </g>
</svg>
