<svg xmlns="http://www.w3.org/2000/svg" width="88.834" height="63.658" viewBox="0 0 88.834 63.658">
  <path id="airplane" d="M10.589,38.216a1.554,1.554,0,0,0-.761,2.034l3.493,7.5a1.55,1.55,0,0,0,2.049.761L41.762,36.182,39.371,61.177a1.553,1.553,0,0,0,.511,1.3,6.776,6.776,0,0,0,4.1,1.552,4.992,4.992,0,0,0,1.226-.155c2.143-.559,3.8-2.468,4.937-5.729L60.532,27.4,81.1,17.8c6.055-2.825,9.175-8.554,7.08-13.025A7.86,7.86,0,0,0,82.111.537a14.391,14.391,0,0,0-8.476,1.3L49.9,12.973,24.374,2.99c-3.214-1.211-5.76-1.179-7.545.109a6.331,6.331,0,0,0-2.314,5.014,1.554,1.554,0,0,0,.668,1.227L32.369,21.155l-9.842,4.658L6.023,21.62a1.553,1.553,0,0,0-1.723.745L.187,29.77a1.553,1.553,0,0,0,.808,2.189l12.218,5.046ZM17.7,7.338a2.656,2.656,0,0,1,.932-1.677c.885-.637,2.5-.544,4.658.264l22.729,8.865L35.645,19.633ZM3.726,29.755l2.7-4.8L22.309,28.9a1.555,1.555,0,0,0,1.025-.092L74.954,4.7a11.347,11.347,0,0,1,6.629-1.056A4.862,4.862,0,0,1,85.372,6.1c1.3,2.8-1.258,6.878-5.59,8.9L61.9,23.375l1.087-3.215a1.578,1.578,0,1,0-3-.993L47.211,57.187c-.761,2.159-1.708,3.447-2.763,3.726a2.627,2.627,0,0,1-1.894-.356l3.105-32.6a1.56,1.56,0,0,0-3.105-.295l-.481,4.983L15.431,45.062,13.243,40.4l4.377-2.049a1.552,1.552,0,0,0,0-2.841Zm0,0" transform="translate(0.001 -0.376)" fill="#0984e3"/>
</svg>
