<svg xmlns="http://www.w3.org/2000/svg" width="80.765" height="42.467" viewBox="0 0 80.765 42.467">
  <g id="car" transform="translate(0 -115.703)">
    <g id="Group_2" data-name="Group 2" transform="translate(0 115.703)">
      <path id="Path_1" data-name="Path 1" d="M76.561,132.038l-6.488-2.962-5.726-9.136a9.02,9.02,0,0,0-7.7-4.237H32.256a9.1,9.1,0,0,0-7.232,3.558l-7.4,9.682L5.3,132.32A7.23,7.23,0,0,0,0,139.287V144a7.226,7.226,0,0,0,7.166,7.282H8.225a9.19,9.19,0,0,0,17.791,0h27.8a9.19,9.19,0,0,0,17.791,0H73.6A7.226,7.226,0,0,0,80.764,144v-5.379A7.212,7.212,0,0,0,76.561,132.038ZM17.113,154.828a5.875,5.875,0,1,1,5.875-5.875A5.877,5.877,0,0,1,17.113,154.828Zm45.6,0a5.875,5.875,0,1,1,5.875-5.875A5.877,5.877,0,0,1,62.708,154.828Zm10.89-6.852H71.844a9.191,9.191,0,0,0-18.271,0H26.248a9.191,9.191,0,0,0-18.271,0H7.15A3.907,3.907,0,0,1,3.293,144v-4.717a3.9,3.9,0,0,1,2.863-3.79l12.893-3.525a1.615,1.615,0,0,0,.877-.6l7.712-10.112a5.85,5.85,0,0,1,4.617-2.251H56.651a5.7,5.7,0,0,1,4.9,2.681l5.991,9.566a1.632,1.632,0,0,0,.712.629l6.918,3.161a3.9,3.9,0,0,1,2.267,3.575V144h.017A3.907,3.907,0,0,1,73.6,147.976Z" transform="translate(0 -115.703)" fill="#0984e3"/>
    </g>
  </g>
</svg>
