<svg xmlns="http://www.w3.org/2000/svg" width="69.01" height="69.01" viewBox="0 0 69.01 69.01">
  <g id="earthquake" transform="translate(0 0)">
    <g id="Group_49" data-name="Group 49" transform="translate(0 0)">
      <path id="Path_1126" data-name="Path 1126" d="M68.462,28.611,35.525.38a1.562,1.562,0,0,0-2.04,0L.549,28.611a1.568,1.568,0,0,0,1.02,2.759H6.274V67.442a1.568,1.568,0,0,0,1.568,1.568H23.526a1.569,1.569,0,0,0,1.4-.867L31.2,55.6a1.564,1.564,0,0,0,.086-1.2l-2.876-8.631,4.212-5.617a1.568,1.568,0,0,0,.147-1.642l-2.665-5.332,6.007-6.866-1.562,6.246a1.573,1.573,0,0,0,.12,1.081l2.788,5.572-2.788,5.572a1.564,1.564,0,0,0-.086,1.2l2.993,8.977-3.026,12.1a1.568,1.568,0,0,0,1.523,1.948H61.168a1.568,1.568,0,0,0,1.568-1.568V31.369h4.705a1.568,1.568,0,0,0,1.02-2.759Zm-7.294-.378A1.568,1.568,0,0,0,59.6,29.8V65.874H38.083l2.65-10.6A1.579,1.579,0,0,0,40.7,54.4l-2.932-8.793,2.846-5.693a1.57,1.57,0,0,0,0-1.4l-2.876-5.754,3-11.985a1.568,1.568,0,0,0-2.7-1.412L27.052,31.905a1.568,1.568,0,0,0-.224,1.734l2.7,5.407-4.126,5.5a1.575,1.575,0,0,0-.233,1.437l2.932,8.793-5.548,11.1H9.411V29.8a1.568,1.568,0,0,0-1.568-1.568H5.809l28.7-24.6,28.7,24.6Z" transform="translate(0 0)" fill="#0984e3"/>
    </g>
  </g>
</svg>
