<svg xmlns="http://www.w3.org/2000/svg" width="78.158" height="90.717" viewBox="0 0 78.158 90.717">
  <g id="Group_1046" data-name="Group 1046" transform="translate(-216.277 -154.815)">
    <path id="Path_2381" data-name="Path 2381" d="M278.418,178.538c0,1.672.029,3.346-.006,5.018a7.549,7.549,0,1,1-14.956-1.512c.29-1.478.871-2.9,1.244-4.361,1.625-6.393-.04-11.849-4.748-16.416a5.694,5.694,0,0,0-.753-.615,1.872,1.872,0,0,0-.542-.13,19.473,19.473,0,0,1-3.9,15.462,7.021,7.021,0,0,1-6.17,2.95,4.926,4.926,0,0,1-4.168-2.077c-1.33-1.832-2.825-3.543-4.479-5.591a11.434,11.434,0,0,0-.31,6.514,32.924,32.924,0,0,0,1.945,4.954,7.782,7.782,0,0,1-3.488,10.272,7.577,7.577,0,0,1-10.166-3.263,13.97,13.97,0,0,1-.943-3.563,9.921,9.921,0,0,0-.241-1.726,34.485,34.485,0,0,0-6.768,23.237c.6,9.937,4.724,18.256,12.2,25.3V215.809c-.745.557-1.412,1.037-2.06,1.543-.938.734-1.893.915-2.7-.1s-.445-1.925.48-2.67c2.781-2.238,5.527-4.522,8.376-6.67a2.979,2.979,0,0,0,1.331-2.862c-.091-1.455-.027-2.919-.024-4.38,0-1.242.486-2.186,1.842-2.182,1.4.005,1.758,1.006,1.726,2.237-.024.916,0,1.834,0,3.108.661-.467,1.127-.762,1.555-1.1,3.635-2.9,7.293-5.776,10.878-8.738a2.415,2.415,0,0,1,3.562-.016c8.416,6.795,16.876,13.534,25.318,20.3.335.269.855.559.9.889a3.287,3.287,0,0,1-.2,2.167,2.13,2.13,0,0,1-1.968.321,14.2,14.2,0,0,1-2.64-1.867v17.134c.585-.528,1.064-.9,1.48-1.343,9.112-9.581,12.49-20.86,9.955-33.859-.255-1.31-.314-2.469,1.233-2.831,1.343-.314,1.928.54,2.2,1.769,2.116,9.681,1.065,19.023-3.732,27.672-7.678,13.842-19.421,21.636-35.474,21.192-14.915-.412-25.907-8.025-33.019-20.962a39.954,39.954,0,0,1,4.965-45.433c.844-.959,1.576-2.489,3.256-1.818,1.6.639,1.049,2.193,1.092,3.427.057,1.675-.008,3.354.022,5.03a4.143,4.143,0,1,0,7.648-1.817,17.5,17.5,0,0,1-.884-15.912c1.1-2.6,2.449-2.772,4.207-.572s3.517,4.389,5.289,6.573a2.967,2.967,0,0,0,5.022-.063c3.633-4.84,4.773-10.088,2.352-15.854a4.406,4.406,0,0,1-.469-1.843c.068-1.191,1.248-1.762,2.576-1.288a18.171,18.171,0,0,1,10.038,8.524,19.215,19.215,0,0,1,1.783,15.356c-.369,1.243-.808,2.47-1.086,3.733a3.976,3.976,0,1,0,7.846,1.02c.076-2.81-.051-5.627.076-8.434a3.084,3.084,0,0,1,1.061-2.249,2.529,2.529,0,0,1,2.273.491c2.6,2.345,5.094,4.81,7.572,7.285.872.87,1.077,1.962.009,2.831-1.084.883-1.978.313-2.779-.606-1.37-1.57-2.785-3.1-4.182-4.648ZM274.853,224.4c0-3.135-.079-6.273.033-9.4a3.966,3.966,0,0,0-1.728-3.657c-5.632-4.377-11.189-8.853-16.726-13.351a1.427,1.427,0,0,0-2.181.014c-5.8,4.694-11.649,9.318-17.428,14.032a2.942,2.942,0,0,0-.926,2.01c-.064,6.81,0,13.621-.062,20.431a2.354,2.354,0,0,0,1.335,2.316q18.308,10.732,36.543-.1a2.1,2.1,0,0,0,1.166-2.075C274.817,231.212,274.855,227.806,274.853,224.4Z" fill="#0984e3"/>
    <path id="Path_2382" data-name="Path 2382" d="M290.906,189.345c-.662.472-1.277,1.226-2,1.349-1.012.173-1.717-.582-1.732-1.661a1.5,1.5,0,0,1,1.7-1.7c.725.1,1.357.848,2.031,1.306Z" fill="#0984e3"/>
    <path id="Path_2383" data-name="Path 2383" d="M248.238,221.417c0-1.565-.018-3.13.006-4.7.025-1.678.582-2.279,2.21-2.292,3.292-.028,6.584,0,9.876-.009,1.487,0,2.151.755,2.146,2.213-.01,3.238.025,6.476-.005,9.714-.015,1.6-.647,2.236-2.3,2.253q-4.857.051-9.714-.016c-1.607-.02-2.191-.659-2.218-2.311C248.218,224.655,248.238,223.036,248.238,221.417Zm3.661-3.385v6.887h6.89v-6.887Z" fill="#0984e3"/>
  </g>
</svg>
