<svg xmlns="http://www.w3.org/2000/svg" width="60.114" height="78.867" viewBox="0 0 60.114 78.867">
  <g id="Group_61" data-name="Group 61" transform="translate(43.128 -176.635)">
    <path id="Path_1130" data-name="Path 1130" d="M-10.489,252.783c.382,2.316.072,2.7-1.827,2.7-4.548.006-9.1-.018-13.648.015-1.185.009-1.94-.358-1.949-1.63-.009-.886-.537-.931-1.212-.928q-3.658.031-7.318.015c-4.584-.021-7.2-2.71-6.6-7.252.919-6.921,2.056-13.816,3.235-20.7a7.952,7.952,0,0,1,5.065-5.969c.9-.4,1.836-.716,2.767-1.027,1-.334,1.979-.582,1.752-2.041-.051-.319.492-.907.892-1.083,1.325-.591,2.7-1.069,4.071-1.555,1.218-.43,1.853.227,2.17,1.451,1.068-.37,2.047-.666,2.988-1.048a1.587,1.587,0,0,0,.254-2.385,12.164,12.164,0,0,1-3.9-6.53c-.075-.307-.642-.6-1.036-.71-3.8-1.018-5.211-4.734-3.08-8.052a4.221,4.221,0,0,0,.489-1.827,47.558,47.558,0,0,1,.531-6.423,14.7,14.7,0,0,1,15.7-11.1A14.8,14.8,0,0,1,2.147,190.626q.067,1.262.042,2.531a6.192,6.192,0,0,0,.857,3.576,4.919,4.919,0,0,1-3.205,7.3A1.65,1.65,0,0,0-1.6,205.427a11.724,11.724,0,0,1-3.531,5.805,2.637,2.637,0,0,0-.489,1.874c.018.3.692.618,1.122.8a.888.888,0,0,0,.818-.2c.669-.982,1.486-.761,2.364-.415,1.137.445,2.268.9,3.426,1.283,1.107.361,1.847.925,1.51,2.268,1.665.6,3.253,1.17,4.835,1.752a12.267,12.267,0,0,1,8.524,12.123c.021,7.5.009,15.009,0,22.513,0,1.982-.287,2.259-2.283,2.259-5.909,0-11.819-.027-17.728.015a8.372,8.372,0,0,1-5.945-2.086A5.785,5.785,0,0,0-10.489,252.783Zm15.514.113V236.908c0-.421-.122-.922.063-1.248.263-.469.833-1.188,1.131-1.125.489.1.958.692,1.257,1.185.188.31.054.824.054,1.245v15.9h6.8a2.622,2.622,0,0,0,.122-.5c-.006-7.6.006-15.2-.045-22.793a8.383,8.383,0,0,0-2.582-5.909c-2.477-2.546-5.82-3.238-9.052-4.423-.248.66-.469,1.221-.666,1.791C1.368,223.152.7,225.3-.148,227.384c-.176.436-.967.624-1.474.925a4.8,4.8,0,0,1-.758-1.692,6.529,6.529,0,0,1,.615-2c.869-2.561,1.74-5.125,2.641-7.778l-2.653-1.03c-.179.167-.269.218-.31.3q-6.29,11.47-12.574,22.939c-.5.907-.093,1.185.782,1.179,1.97-.012,3.943.039,5.909-.057a1.624,1.624,0,0,0,1.14-.88c.7-1.788,1.28-3.623,1.907-5.438a30.4,30.4,0,0,1,1.349-3.692,1.818,1.818,0,0,1,1.522-.737c.31.036.657.88.743,1.4a3.266,3.266,0,0,1-.382,1.334c-.889,2.6-1.782,5.205-2.722,7.954,3.283.194,5.909,1.289,7.42,4.217,1.525,2.964,1.015,5.781-.889,8.572Zm-11.679-61.9a26.644,26.644,0,0,1-14.475,4.044c0,3.322-.4,6.593.1,9.727.677,4.331,5,7.07,9.44,6.59a8.678,8.678,0,0,0,7.8-8.387c.072-2.671.042-5.345.009-8.017a2.193,2.193,0,0,0-.409-1.277C-4.926,192.772-5.762,191.952-6.654,190.993ZM-28.8,240.138l-1.289-20.113c-.827.281-1.388.513-1.97.666-3.444.892-5.25,3.11-5.724,6.635-.579,4.313-1.379,8.6-2,12.905a43.945,43.945,0,0,0-.68,6.966c.039,2.328,1.215,3.211,3.549,3.241s4.686.009,7.029.012h1.737c-.128-1.856-.242-3.441-.346-5.023-.051-.749.176-1.716-.209-2.182s-1.424-.3-2.08-.609c-.466-.221-1.065-.776-1.063-1.176s.609-.964,1.074-1.161A6.671,6.671,0,0,1-28.8,240.138Zm3.5-24.017c-2.5.725-2.48.725-2.328,3.086q.842,13.2,1.665,26.393c.155,2.418.337,4.832.51,7.288h12.2ZM-.58,194.026c1.334-4.319-1.024-10.007-5.274-12.834a12.175,12.175,0,0,0-14.633.892c-3.453,2.943-5.432,8.781-4.02,11.977.161-.075.442-.125.466-.23.331-1.489,1.412-1.489,2.606-1.409a22.737,22.737,0,0,0,13.5-3.587c1.633-.979,1.782-1,3.077.412C-3.437,190.8-2.046,192.387-.58,194.026Zm-21.725,23.205,6.265,19.1,10.8-19.752c-2.256,1.48-4.253,3.089-6.348,4.557a2.033,2.033,0,0,1-1.85.09,50.246,50.246,0,0,1-5.459-4.181,1.479,1.479,0,0,0-1.916-.391C-21.231,216.849-21.675,216.989-22.305,217.231Zm13.269,29.855A4.216,4.216,0,0,0-7.1,251.75a5.556,5.556,0,0,0,5.671.669,5.069,5.069,0,0,0,2.794-4.945,4.978,4.978,0,0,0-3.507-4.459,12.1,12.1,0,0,0-3.053-.278C-9.036,242.7-9.036,242.722-9.036,247.086ZM-17.2,213.047c.257,1.152.182,2.185.657,2.65a39.25,39.25,0,0,0,3.981,3.089c1.176-.889,2.212-1.773,3.349-2.507,1.233-.794,1.218-1.8.818-3.092A13.2,13.2,0,0,1-17.2,213.047Zm-6.751-16.376c-1.674.251-2.48,1.212-2.385,2.659a2.193,2.193,0,0,0,2.385,2.143Zm22.811,4.88A2.379,2.379,0,0,0,1.207,199.1a2.284,2.284,0,0,0-2.352-2.346Zm-10.733,47.529.248-.051v-6.16h-2.247Z" transform="translate(0 0)" fill="#0984e3"/>
  </g>
</svg>
