<svg xmlns="http://www.w3.org/2000/svg" width="117.842" height="76.344" viewBox="0 0 117.842 76.344">
  <g id="Group_2201" data-name="Group 2201" transform="translate(1.5 1.5)">
    <path id="Path_11628" data-name="Path 11628" d="M3.21,135.806H74.18V94.987a3.187,3.187,0,1,1,6.374,0v7.165H98.432a3.278,3.278,0,0,1,2.26.927L113.915,116.3a3.2,3.2,0,0,1,.927,2.26v33.383a3.183,3.183,0,0,1-3.187,3.187h-4.34a13.208,13.208,0,0,1-25.631,0H39.938a13.208,13.208,0,0,1-25.631,0H3.187A3.183,3.183,0,0,1,0,151.944V138.993A3.217,3.217,0,0,1,3.21,135.806Zm105.258-15.912L97.121,108.548H80.577v18.9h27.891ZM94.5,158.793a6.826,6.826,0,1,0-6.826-6.826A6.834,6.834,0,0,0,94.5,158.793ZM81.707,148.757a13.2,13.2,0,0,1,25.631,0h1.153v-14.94H80.577v14.94Zm-41.746,0H74.18V142.18H36.028A13.3,13.3,0,0,1,39.961,148.757ZM27.145,158.793a6.826,6.826,0,1,0-6.826-6.826A6.834,6.834,0,0,0,27.145,158.793ZM6.4,148.757H14.33a13.2,13.2,0,0,1,3.933-6.577H6.4Z" transform="translate(0 -91.8)" fill="#0984e3" stroke="#fff" stroke-width="3"/>
  </g>
</svg>
