<svg xmlns="http://www.w3.org/2000/svg" width="70.161" height="77.88" viewBox="0 0 70.161 77.88">
  <g id="Group_60" data-name="Group 60" transform="translate(-97.828 -171.063)">
    <path id="Path_1127" data-name="Path 1127" d="M103.236,185.569c7.276,5.631,8.811,12.675,5.8,20.949a25.077,25.077,0,0,1,3.81.717,21.464,21.464,0,0,1,4.218,2.036c.363.226.289,1.159.416,1.766-.574.093-1.344.473-1.692.235a12.514,12.514,0,0,0-8.5-1.9c-1.7.148-2.291-.811-1.475-2.338,1.9-3.558,2.747-7.279,1.7-11.258a13.215,13.215,0,0,0-8.263-9.278c-.579-.235-1.417-.779-1.433-1.207a2.5,2.5,0,0,1,1.049-1.7c4.848-3.582,9.786-7.038,15.433-9.293,15.47-6.178,29.484-3.337,42.24,6.945.883.711,1.376.746,2.166-.032,1.153-1.135,2.426-2.149,3.644-3.221.693-.612,1.46-1.228,2.276-.33s.137,1.6-.567,2.214q-2.2,1.919-4.387,3.851a.96.96,0,0,0-.143.235c.021.087.015.2.066.256,5.729,6.838,8.1,14.862,8.358,23.636a51.3,51.3,0,0,1-7.215,28.558c-.425.71-.8,1.59-1.878,1.267-1.043-.313-.937-1.243-.94-2.081a32.139,32.139,0,0,0-2.769-13.234c-2.259-5-6.14-7.885-11.746-8.206-1.557-.089-2.053-.589-2.193-2.108-.8-8.646-6.5-14.238-15.091-14.617a2.785,2.785,0,0,1-2.958-2.249,28.758,28.758,0,0,0-1.932-4.6,10.371,10.371,0,0,0-8.69-5.643A25.884,25.884,0,0,0,103.236,185.569Zm57.21,46.056c.291-.561.517-.952.7-1.362a50.236,50.236,0,0,0,4.131-25.235,32.035,32.035,0,0,0-5.014-15.588c-6.94-10.36-17.163-15-29.212-15.77-9.563-.61-17.929,3.106-25.648,8.443-.053.036-.039.164-.029.113,1.818,0,3.658-.059,5.492.009,7.145.265,11.569,3.468,14.1,10.15a8.09,8.09,0,0,1,.494,1.444c.137.8.589.981,1.338,1.063,9.511,1.047,15.2,6.346,16.822,15.675.133.766.38,1.1,1.168,1.225,7.073,1.139,11.582,5.257,13.662,12.04C159.207,226.3,159.739,228.835,160.446,231.625Z" fill="#0984e3"/>
    <path id="Path_1128" data-name="Path 1128" d="M117.284,218.932c-3.1-5.174-2.788-9.5.83-12.607,3.953-3.391,8.446-2.96,13.567,1.328.211-.155.437-.307.65-.479,2.5-2.021,5.246-2.729,8.285-1.364,3.126,1.4,4.628,4,5.071,7.287a20.677,20.677,0,0,0,.279,3.311,15.871,15.871,0,0,0,1.86,3.952c1.213,1.848,1.1,2.386-1.046,2.978-.21.059-.41.148-.885.323.841.389,1.451.662,2.053.953a5.646,5.646,0,0,1,3.008,6.271,1.493,1.493,0,0,1-1.655,1.32q-18.978-.018-37.955,0c-1.126,0-1.537-.559-1.576-1.635C109.56,224.839,111.771,221.366,117.284,218.932Zm18.61,10.678c.405-4.007-2.24-7.389-6.47-8.39-.9-.212-1.873-.484-1.888-1.512a3.02,3.02,0,0,1,.91-1.973c2.757-2.642,3.05-6.452.6-9.04a6.658,6.658,0,0,0-9.581-.16c-2.583,2.594-2.378,6.478.371,9.165a2.7,2.7,0,0,1,.862,2.081c-.157.589-1.1,1.047-1.781,1.4-.936.484-2.026.69-2.918,1.231-2.565,1.56-4.036,4.681-3.474,7.2Zm-5-10.7c5.088,1.9,7.569,5.524,7.771,10.691h9.745a2.563,2.563,0,0,0-1.7-2.785c-1.233-.527-2.485-1.005-3.721-1.527a1.711,1.711,0,0,1-1.183-2.206,4.528,4.528,0,0,1,1.718-1.709c.36-.252.942-.184,1.683-.3-1.842-2.327-1.8-4.882-2.053-7.423a8.277,8.277,0,0,0-1.61-4.022,5.117,5.117,0,0,0-8.069.014,1.737,1.737,0,0,0-.44,1.21A8.985,8.985,0,0,1,130.893,218.907Z" transform="translate(6.049 16.739)" fill="#0984e3"/>
    <path id="Path_1129" data-name="Path 1129" d="M103.8,221.959c.662-1.222,1.078-2.689,2.02-3.629,8.3-8.276,16.685-16.456,25.045-24.667.656-.645,1.385-1.093,2.152-.288.782.82.225,1.512-.414,2.139q-11.853,11.627-23.7,23.259c-.463.454-.945.892-1.376,1.375a2.979,2.979,0,0,0-.181,3.932,3.1,3.1,0,0,0,4.016.669c.827-.512,1.622-1.329,2.5-.184.571.746,0,1.7-1.373,2.466a5.6,5.6,0,0,1-8.331-4.878Z" transform="translate(3.028 11.095)" fill="#0984e3"/>
  </g>
</svg>
