<svg xmlns="http://www.w3.org/2000/svg" width="172.627" height="35.174" viewBox="0 0 172.627 35.174">
  <g id="Group_46" data-name="Group 46" transform="translate(-195.181 -2486.73)">
    <g id="Group_59" data-name="Group 59" transform="translate(195.18 2486.73)">
      <path id="Path_668" data-name="Path 668" d="M-1228.916,3364.412a3.226,3.226,0,0,1-3.227,3.224,3.226,3.226,0,0,1-3.224-3.227,3.225,3.225,0,0,1,3.227-3.224h0A3.228,3.228,0,0,1-1228.916,3364.412Z" transform="translate(1249.662 -3346.849)" fill="#d87c05"/>
      <path id="Path_669" data-name="Path 669" d="M-1230.862,3353.437h-8.165a4.222,4.222,0,0,0-4.216,4.219v8.162a4.224,4.224,0,0,0,4.216,4.219h8.165a4.225,4.225,0,0,0,4.216-4.219v-8.162A4.223,4.223,0,0,0-1230.862,3353.437Zm-4,13.337a5.037,5.037,0,0,1-5.04-5.033,5.036,5.036,0,0,1,5.033-5.04,5.036,5.036,0,0,1,5.039,5.033v0a5.043,5.043,0,0,1-5.033,5.037Zm5.329-9.212a1.2,1.2,0,0,1-1.2-1.2,1.2,1.2,0,0,1,1.2-1.2,1.2,1.2,0,0,1,1.2,1.2,1.2,1.2,0,0,1-1.2,1.2h0Z" transform="translate(1252.38 -3344.174)" fill="#d87c05"/>
      <path id="Path_670" data-name="Path 670" d="M-1239.759,3339.518A17.512,17.512,0,0,0-1257.2,3357.1a17.512,17.512,0,0,0,17.438,17.586,17.513,17.513,0,0,0,17.438-17.586A17.516,17.516,0,0,0-1239.759,3339.518Zm10.222,21.68a6.175,6.175,0,0,1-6.14,6.192h-8.165a6.175,6.175,0,0,1-6.14-6.192v-8.232a6.175,6.175,0,0,1,6.14-6.2h8.165a6.175,6.175,0,0,1,6.14,6.2Z" transform="translate(1257.197 -3339.518)" fill="#d87c05"/>
    </g>
    <g id="Group_58" data-name="Group 58" transform="translate(267.329 2486.73)">
      <path id="Path_667" data-name="Path 667" d="M-1161.8,3339.518a17.512,17.512,0,0,0-17.438,17.587,17.512,17.512,0,0,0,17.438,17.586,17.513,17.513,0,0,0,17.438-17.586,17.513,17.513,0,0,0-17.438-17.587Zm9.713,11.58a.483.483,0,0,1-.1.3,7.555,7.555,0,0,1-1.521,1.6c-.083.066-.23.132-.23.258a11.874,11.874,0,0,1-3.092,8.624,11.433,11.433,0,0,1-11.17,2.633,10.612,10.612,0,0,1-2.161-.87c-.227-.127-.452-.255-.673-.4-.054-.046-.1-.087-.049-.116s.083-.026.256,0a7.566,7.566,0,0,0,3.233-.417,4.934,4.934,0,0,0,2.128-1.137c.009-.014.014-.014.023-.026-.141-.035-.281-.035-.423-.058a4.177,4.177,0,0,1-3.115-2.631c-.043-.107,0-.159.107-.14a4.441,4.441,0,0,0,1.484-.046,2.325,2.325,0,0,1-.5-.154,4.052,4.052,0,0,1-2.476-3.231,2.362,2.362,0,0,1-.026-.452c.009-.1.054-.139.147-.081a4.028,4.028,0,0,0,1.513.429c-.17-.132-.328-.281-.484-.429a4.032,4.032,0,0,1-.676-4.734c.075-.113.124-.113.215-.008a12.143,12.143,0,0,0,7.834,4.023c.083.012.092,0,.081-.093a4.257,4.257,0,0,1,.041-1.651,4.038,4.038,0,0,1,.774-1.566,4.177,4.177,0,0,1,1.3-1.067,4.04,4.04,0,0,1,1.608-.458,3.844,3.844,0,0,1,1.694.275,4,4,0,0,1,1.1.684,1.64,1.64,0,0,1,.2.2.151.151,0,0,0,.158.044,9.9,9.9,0,0,0,2.281-.879.1.1,0,0,1,.1-.009c.035.023.023.066.006.1a3.533,3.533,0,0,1-.638,1.175c-.182.229-.636.792-.946.846a7.776,7.776,0,0,0,1.924-.554c.078-.035.078-.05.078,0Z" transform="translate(1179.239 -3339.518)" fill="#d87c05"/>
    </g>
    <path id="Path_1125" data-name="Path 1125" d="M-1083.842,3339.52a17.51,17.51,0,0,0-17.438,17.587,17.516,17.516,0,0,0,17.444,17.586,17.513,17.513,0,0,0,17.431-17.586A17.511,17.511,0,0,0-1083.842,3339.52Zm.138,23.629-1.892,2.694a.6.6,0,0,1-1.094-.349v-3.263a.6.6,0,0,1,.773-.581l1.892.568A.611.611,0,0,1-1083.7,3363.149Zm7.714-14.218-3.313,13.267a.411.411,0,0,1-.511.291l-6.09-1.955a.407.407,0,0,1-.183-.647l5.919-7.285-7.956,7.04a.394.394,0,0,1-.386.079l-5.435-1.711a.409.409,0,0,1-.059-.753l17.444-8.79A.4.4,0,0,1-1075.991,3348.931Z" transform="translate(1434.212 -852.788)" fill="#d87c05"/>
  </g>
</svg>
