<svg id="Iconly_Bold_Location" data-name="Iconly Bold Location" xmlns="http://www.w3.org/2000/svg" width="36.768" height="43.257" viewBox="0 0 36.768 43.257">
  <g id="Location-2">
    <path id="Location-3" d="M-3259.894,3747.479a2.925,2.925,0,0,1-1.587-.533,46.531,46.531,0,0,1-11.982-11.119,22.456,22.456,0,0,1-4.815-13.613,17.663,17.663,0,0,1,5.407-12.726,18.451,18.451,0,0,1,12.962-5.265,18.217,18.217,0,0,1,18.4,17.99,22.474,22.474,0,0,1-4.823,13.613,47.378,47.378,0,0,1-11.984,11.119A2.851,2.851,0,0,1-3259.894,3747.479Zm-.015-30.761a6.057,6.057,0,0,0-6.056,6.056h0a5.864,5.864,0,0,0,1.775,4.226,6.1,6.1,0,0,0,8.634-.121,6.11,6.11,0,0,0,1.726-4.1,6.108,6.108,0,0,0-6.084-6.056Z" transform="translate(3278.278 -3704.222)" fill="#047cd8"/>
  </g>
</svg>
