<svg xmlns="http://www.w3.org/2000/svg" width="30.141" height="30.14" viewBox="0 0 30.141 30.14">
  <g id="Iconly_Bold_Calling" data-name="Iconly Bold Calling" transform="translate(0)">
    <g id="Calling">
      <path id="Calling-2" d="M-3592.914,3761.294c-6.465-2.7-16.345-12.381-18.955-18.8-1.083-2.389-1.092-4.358-.018-5.838.428-.694,2.867-3.6,5.051-3.505a2.811,2.811,0,0,1,1.7.89,19.939,19.939,0,0,1,3.388,4.705,3.378,3.378,0,0,1-.636,2.441c-.4.705-1.48,2.041-1.206,2.82a17.322,17.322,0,0,0,9.182,8.922c.763.277,2.1-.8,2.8-1.206a3.335,3.335,0,0,1,2.435-.639,20.213,20.213,0,0,1,4.69,3.456,2.8,2.8,0,0,1,.881,1.689c.082,2.233-2.954,4.784-3.507,5.1a4.258,4.258,0,0,1-2.547.794A7.821,7.821,0,0,1-3592.914,3761.294Zm2.584-17.354h0a5.218,5.218,0,0,0-4.134-4.145,1.294,1.294,0,0,1-1.026-1.519,1.3,1.3,0,0,1,1.519-1.026h0a7.8,7.8,0,0,1,6.179,6.194,1.3,1.3,0,0,1-1.022,1.524,1.4,1.4,0,0,1-.25.022A1.3,1.3,0,0,1-3590.329,3743.94Zm5.208-.113a10.417,10.417,0,0,0-9.232-9.25,1.3,1.3,0,0,1-1.14-1.444,1.307,1.307,0,0,1,.485-.868,1.235,1.235,0,0,1,.942-.266,12.987,12.987,0,0,1,11.511,11.539,1.294,1.294,0,0,1-1.135,1.432h0a1.3,1.3,0,0,1-.151.009A1.289,1.289,0,0,1-3585.121,3743.827Z" transform="translate(3612.687 -3731.989)" fill="#047cd8"/>
    </g>
  </g>
</svg>
