<svg id="Iconly_Bold_Message" data-name="Iconly Bold Message" xmlns="http://www.w3.org/2000/svg" width="36.768" height="33.091" viewBox="0 0 36.768 33.091">
  <g id="Message">
    <path id="Message-2" d="M-3252.223,3766.079h-18.161a9.3,9.3,0,0,1-9.3-9.284v-14.523a9.3,9.3,0,0,1,9.3-9.284h18.161a9.366,9.366,0,0,1,6.582,2.722,9.216,9.216,0,0,1,2.722,6.562v14.523A9.3,9.3,0,0,1-3252.223,3766.079Zm-20.048-23.447a1.344,1.344,0,0,0-.981.412,1.4,1.4,0,0,0-.131,1.838l.241.239,8.365,6.526a5.745,5.745,0,0,0,3.585,1.25,5.853,5.853,0,0,0,3.6-1.25l8.294-6.636.148-.147a1.425,1.425,0,0,0-.023-1.839,1.528,1.528,0,0,0-.97-.478h-.078a1.4,1.4,0,0,0-.954.367l-8.289,6.618a2.885,2.885,0,0,1-1.839.661,2.928,2.928,0,0,1-1.838-.661l-8.272-6.618A1.442,1.442,0,0,0-3272.271,3742.632Z" transform="translate(3279.687 -3732.988)" fill="#047cd8"/>
  </g>
</svg>
