<svg id="insurance" xmlns="http://www.w3.org/2000/svg" width="74.736" height="70.187" viewBox="0 0 74.736 70.187">
  <g id="Group_4" data-name="Group 4" transform="translate(0 0)">
    <g id="Group_3" data-name="Group 3">
      <path id="Path_2" data-name="Path 2" d="M70.708,59.068l-5.931-2.691-1.7-2.743A22.8,22.8,0,0,0,73.707,34.351V23.089a1.752,1.752,0,0,0-.943-1.508L57.526,13.473a1.668,1.668,0,0,0-1.628.017L41.139,21.581a1.66,1.66,0,0,0-.857,1.508V34.574a22.891,22.891,0,0,0,1.988,9.479H29.911a8.624,8.624,0,0,0-6.805,3.36L16.37,56.24,5.057,59.326A6.861,6.861,0,0,0,0,65.925v4.32a6.947,6.947,0,0,0,6.891,6.891h.823a8.63,8.63,0,0,0,16.627,0h25.2a8.63,8.63,0,0,0,16.627,0h1.68a6.924,6.924,0,0,0,6.891-6.891V65.291A6.887,6.887,0,0,0,70.708,59.068ZM43.71,24.1l13.079-7.182,13.49,7.2V34.351a19.467,19.467,0,0,1-11.93,17.913h-.034l-1.646.7-1.337-.6A19.437,19.437,0,0,1,43.71,34.557ZM16.027,79.964a5.194,5.194,0,1,1,5.194-5.194A5.19,5.19,0,0,1,16.027,79.964Zm41.825,0a5.194,5.194,0,1,1,5.194-5.194A5.19,5.19,0,0,1,57.852,79.964Zm13.473-9.736h-.017a3.5,3.5,0,0,1-3.463,3.463h-1.44a8.626,8.626,0,0,0-17.107,0H24.581a8.626,8.626,0,0,0-17.107,0H6.891a3.5,3.5,0,0,1-3.463-3.463v-4.32a3.446,3.446,0,0,1,2.537-3.291l11.862-3.24a1.78,1.78,0,0,0,.926-.617l7.1-9.291a5.148,5.148,0,0,1,4.08-2.006h14.3a23.213,23.213,0,0,0,9.736,8.056l2.057.891a1.733,1.733,0,0,0,1.371,0l2.314-.994c.12-.051.24-.1.343-.154l2.108,3.377a1.6,1.6,0,0,0,.737.651l6.411,2.9a3.454,3.454,0,0,1,2.023,3.1v4.937Z" transform="translate(0 -13.269)" fill="#0984e3"/>
    </g>
  </g>
  <g id="Group_6" data-name="Group 6" transform="translate(48.842 16.667)">
    <g id="Group_5" data-name="Group 5">
      <path id="Path_3" data-name="Path 3" d="M301.334,111.148a1.733,1.733,0,0,0-2.417-.274l-.017.017-8.022,6.531-2.914-3.411a1.715,1.715,0,1,0-2.623,2.211l.017.017,3.994,4.68a.236.236,0,0,0,.051.069c.017.017.034.051.069.069l.069.069c.017.017.051.034.069.051a.377.377,0,0,0,.086.051.235.235,0,0,1,.069.051c.034.017.051.034.086.051a.13.13,0,0,0,.069.034.243.243,0,0,0,.1.034c.017.017.051.017.069.034.034.017.068.017.1.034.017,0,.051.017.069.017.034,0,.069.017.1.017.017,0,.051.017.069.017h.377c.034,0,.086-.017.12-.017a.063.063,0,0,0,.051-.017c.034,0,.069-.017.1-.017.017,0,.034-.017.051-.017.034,0,.051-.017.086-.034.017,0,.034-.017.069-.017.017-.017.051-.017.069-.034s.051-.017.069-.034.051-.017.069-.034a.13.13,0,0,1,.069-.034c.017,0,.034-.034.069-.034a.238.238,0,0,1,.069-.051c.017-.017.034-.017.051-.034l9.308-7.576A1.733,1.733,0,0,0,301.334,111.148Z" transform="translate(-284.936 -110.505)" fill="#0984e3"/>
    </g>
  </g>
</svg>
