<svg xmlns="http://www.w3.org/2000/svg" width="34.076" height="34.084" viewBox="0 0 34.076 34.084">
  <g id="Group_68" data-name="Group 68" transform="translate(0.375 0.405)">
    <path id="Path_1149" data-name="Path 1149" d="M-20.4,263.373H-33.758a3.043,3.043,0,0,1-3.272-3.263q0-8.447-.007-16.892a1.218,1.218,0,0,1,.519-1.066c1.28-.977,2.539-1.977,3.812-2.958a.5.5,0,0,0,.223-.453c-.011-.815,0-1.63,0-2.446a3.045,3.045,0,0,1,3.2-3.2c1.314-.007,2.628,0,3.944-.011a.876.876,0,0,0,.515-.18c.783-.633,1.555-1.284,2.323-1.936a3,3,0,0,1,4.26-.011c.767.654,1.537,1.3,2.32,1.938a.96.96,0,0,0,.547.189c1.325.016,2.651,0,3.978.011a3.026,3.026,0,0,1,2.951,1.99,3.785,3.785,0,0,1,.182,1.132c.027.838.018,1.676,0,2.514a.531.531,0,0,0,.241.478c1.273.984,2.534,1.981,3.81,2.958a1.163,1.163,0,0,1,.506,1.007q-.014,8.495-.007,16.992a3.034,3.034,0,0,1-3.222,3.211Zm15.175-18.88c-.125.087-.2.134-.269.189q-6.37,5.117-12.738,10.236a3.1,3.1,0,0,1-4.279.014q-6.374-5.144-12.763-10.263c-.064-.052-.139-.091-.246-.162v.246q0,7.713,0,15.427a1.542,1.542,0,0,0,1.7,1.683q13.441,0,26.881,0a2.313,2.313,0,0,0,.638-.084,1.52,1.52,0,0,0,1.073-1.656q0-7.644,0-15.291Zm-15.143-9.883q-4.468,0-8.935,0a1.538,1.538,0,0,0-1.674,1.667c0,3.181,0,6.365-.007,9.546a.542.542,0,0,0,.244.478c1.617,1.277,3.236,2.55,4.837,3.848,1.451,1.177,2.885,2.375,4.317,3.575a1.559,1.559,0,0,0,2.38.016c.485-.408.952-.84,1.446-1.236q3.853-3.095,7.719-6.173a.672.672,0,0,0,.278-.6c-.009-3.1-.03-6.207.007-9.309a1.69,1.69,0,0,0-1.844-1.831C-14.523,234.638-17.447,234.611-20.368,234.611ZM-32.506,244.9v-3.949l-2.532,1.977Zm24.26-3.951v3.953l2.534-1.974Zm-9.969-7.879.036-.068c-.474-.4-.927-.82-1.428-1.177a1.142,1.142,0,0,0-1.314-.1c-.587.378-1.118.84-1.674,1.268l.052.082Z" transform="translate(37.037 -230.07)" fill="#4dbfe7" stroke="#4dbfe7" stroke-width="0.75"/>
    <path id="Path_1150" data-name="Path 1150" d="M-27.605,236.053a4.114,4.114,0,0,1,3.6,1.781.759.759,0,0,1-.143,1.1.746.746,0,0,1-1.084-.25,2.878,2.878,0,0,0-2.965-1.059,2.474,2.474,0,0,0-1.824,1.109.726.726,0,0,1-1.043.2.758.758,0,0,1-.178-1.052,3.977,3.977,0,0,1,3.111-1.808C-27.96,236.064-27.79,236.062-27.605,236.053Z" transform="translate(44.267 -222.428)" fill="#4dbfe7" stroke="#4dbfe7" stroke-width="0.75"/>
    <path id="Path_1151" data-name="Path 1151" d="M-30.277,236.229a.752.752,0,0,1-.772-.738.753.753,0,0,1,.74-.767.767.767,0,0,1,.779.738A.766.766,0,0,1-30.277,236.229Z" transform="translate(44.684 -224.126)" fill="#4dbfe7" stroke="#4dbfe7" stroke-width="0.75"/>
    <path id="Path_1152" data-name="Path 1152" d="M-28.279,236.229a.763.763,0,0,1-.776-.736.765.765,0,0,1,.745-.77.752.752,0,0,1,.772.738A.75.75,0,0,1-28.279,236.229Z" transform="translate(47.23 -224.126)" fill="#4dbfe7" stroke="#4dbfe7" stroke-width="0.75"/>
  </g>
</svg>
