<svg xmlns="http://www.w3.org/2000/svg" width="35.777" height="35.778" viewBox="0 0 35.777 35.778">
  <g id="Group_64" data-name="Group 64" transform="translate(0.243 0.248)">
    <path id="Path_1132" data-name="Path 1132" d="M110.741,160.763q4.6,0,9.193,0a8.26,8.26,0,0,1,8.407,8.419c.008,5.29,0,10.578,0,15.868a7.886,7.886,0,0,1-2.374,5.776c-.961.968-1.921,1.937-2.9,2.893a7.8,7.8,0,0,1-5.669,2.321c-5.332,0-10.663.009-15.994,0a8.252,8.252,0,0,1-8.343-8.355q-.016-9.288,0-18.575a8.246,8.246,0,0,1,8.354-8.344C104.529,160.757,107.636,160.763,110.741,160.763ZM125.533,183.8c.02-.188.043-.309.043-.428,0-4.849.026-9.7-.011-14.544a5.445,5.445,0,0,0-5.414-5.3q-9.318-.018-18.636,0a6.581,6.581,0,0,0-1.677.208,5.42,5.42,0,0,0-4,5.328q-.023,9.412,0,18.826a5.445,5.445,0,0,0,5.343,5.366c4.826.031,9.654.011,14.48.008a2.929,2.929,0,0,0,.441-.07c0-.791-.012-1.545,0-2.3a17.523,17.523,0,0,1,.112-2.571,5.417,5.417,0,0,1,5.4-4.531C122.916,183.792,124.21,183.8,125.533,183.8Zm-.225,2.809c-1.415,0-2.8-.09-4.167.028a2.214,2.214,0,0,0-2.123,1.935,39.239,39.239,0,0,0-.04,4.41C120.541,192.776,124.99,188.349,125.309,186.61Z" transform="translate(-93.061 -160.76)" fill="#4dbfe7" stroke="#fff" stroke-width="0.5"/>
    <path id="Path_1133" data-name="Path 1133" d="M107.887,174.157c-2.643,0-5.287,0-7.93,0a1.392,1.392,0,1,1,0-2.761q5.034-.009,10.068,0,2.864,0,5.727,0c1.017,0,1.654.557,1.635,1.412-.017.831-.638,1.351-1.632,1.351q-3.933,0-7.866,0Z" transform="translate(-90.242 -155.131)" fill="#4dbfe7" stroke="#fff" stroke-width="0.5"/>
    <path id="Path_1134" data-name="Path 1134" d="M107.889,168.829c-2.622,0-5.242.014-7.864-.015a2.173,2.173,0,0,1-1.16-.35,1.2,1.2,0,0,1-.395-1.472,1.3,1.3,0,0,1,1.3-.906q2.515-.014,5.033-.011,5.443,0,10.884.006a3.906,3.906,0,0,1,.5.018,1.344,1.344,0,0,1,1.2,1.387,1.318,1.318,0,0,1-1.259,1.323c-.878.04-1.761.017-2.642.018Q110.688,168.831,107.889,168.829Z" transform="translate(-90.247 -157.946)" fill="#4dbfe7" stroke="#fff" stroke-width="0.5"/>
    <path id="Path_1135" data-name="Path 1135" d="M103.784,176.709c1.3,0,2.6-.006,3.9,0a1.387,1.387,0,1,1,.009,2.749q-3.864.009-7.73,0c-.985,0-1.589-.554-1.574-1.4a1.383,1.383,0,0,1,1.565-1.345c1.277-.008,2.555,0,3.833,0Z" transform="translate(-90.24 -152.314)" fill="#4dbfe7" stroke="#fff" stroke-width="0.5"/>
  </g>
</svg>
