<svg xmlns="http://www.w3.org/2000/svg" width="42.59" height="42.554" viewBox="0 0 42.59 42.554">
  <g id="Group_66" data-name="Group 66" transform="translate(0.513 0.505)">
    <path id="Path_1141" data-name="Path 1141" d="M147.972,221.906c-.4-.293-.633-.463-.864-.63a20.309,20.309,0,0,0-16.568-3.661,20.75,20.75,0,0,0-6.278,38.283,19.815,19.815,0,0,0,10.341,2.81,1.888,1.888,0,0,0,2.024-1.86,1.922,1.922,0,0,0-2-1.9c-.216-.01-.432-.007-.648-.015a17,17,0,1,1,9.025-31.817c.741.407,1.426.915,2.137,1.376l-.071.217c-.875,0-1.75-.018-2.625,0a1.9,1.9,0,1,0-.016,3.8q3.643.037,7.288,0a1.881,1.881,0,0,0,2.014-2.043q.02-3.643,0-7.286a1.883,1.883,0,1,0-3.76-.016C147.957,219.994,147.972,220.828,147.972,221.906ZM132.825,232.26c0,1.78.01,3.562,0,5.343a2.548,2.548,0,0,0,.815,1.946c1.735,1.7,3.443,3.427,5.164,5.141.994.99,2.089,1.088,2.924.267s.756-1.939-.225-2.924c-1.409-1.415-2.811-2.839-4.248-4.225a1.851,1.851,0,0,1-.619-1.481c.027-3.131.006-6.261.008-9.391a2.009,2.009,0,0,0-1.08-2.014,1.89,1.89,0,0,0-2.724,1.833C132.8,228.589,132.827,230.425,132.825,232.26Zm22.667,5.754a1.88,1.88,0,0,0-3.756-.164,1.915,1.915,0,0,0,1.883,2A1.88,1.88,0,0,0,155.492,238.014Zm-1.424,7.187a1.856,1.856,0,0,0-1.891-1.889,1.921,1.921,0,0,0-1.872,1.933,1.9,1.9,0,0,0,1.871,1.844A1.861,1.861,0,0,0,154.068,245.2Zm-5.922,4.213a1.836,1.836,0,0,0-1.941,1.741,1.882,1.882,0,1,0,1.941-1.741Zm-4.312,5.964a1.879,1.879,0,0,0-1.924-1.86,1.914,1.914,0,0,0-1.835,1.964,1.88,1.88,0,0,0,3.759-.1Z" transform="translate(-113.917 -217.16)" fill="#4dbfe7" stroke="#fff" stroke-width="1"/>
    <path id="Path_1142" data-name="Path 1142" d="M147.972,221.906c0-1.078-.015-1.912,0-2.744a1.883,1.883,0,1,1,3.76.016q.022,3.643,0,7.286a1.881,1.881,0,0,1-2.014,2.043q-3.645.042-7.288,0a1.9,1.9,0,1,1,.016-3.8c.875-.022,1.75,0,2.625,0l.071-.217c-.711-.461-1.4-.969-2.137-1.376a17,17,0,1,0-9.025,31.817c.216.007.432.005.648.015a1.922,1.922,0,0,1,2,1.9,1.888,1.888,0,0,1-2.024,1.86,19.815,19.815,0,0,1-10.341-2.81,20.75,20.75,0,0,1,6.278-38.283,20.309,20.309,0,0,1,16.568,3.661C147.34,221.444,147.57,221.613,147.972,221.906Z" transform="translate(-113.917 -217.16)" fill="#4dbfe7" stroke="#fff" stroke-width="1"/>
    <path id="Path_1143" data-name="Path 1143" d="M139.137,234.782c0-1.835-.025-3.671.009-5.506a1.89,1.89,0,0,1,2.724-1.833,2.009,2.009,0,0,1,1.08,2.014c0,3.13.019,6.26-.008,9.391a1.851,1.851,0,0,0,.619,1.481c1.437,1.386,2.838,2.811,4.248,4.225.981.984,1.062,2.1.225,2.924s-1.93.723-2.924-.267c-1.72-1.714-3.429-3.442-5.164-5.141a2.548,2.548,0,0,1-.815-1.946C139.147,238.344,139.136,236.563,139.137,234.782Z" transform="translate(-120.228 -219.682)" fill="#4dbfe7" stroke="#fff" stroke-width="1"/>
    <path id="Path_1144" data-name="Path 1144" d="M168.12,244.324a1.88,1.88,0,0,1-1.873,1.837,1.915,1.915,0,0,1-1.883-2,1.88,1.88,0,0,1,3.756.164Z" transform="translate(-126.545 -223.471)" fill="#4dbfe7" stroke="#fff" stroke-width="1"/>
    <path id="Path_1145" data-name="Path 1145" d="M166.218,253.933a1.861,1.861,0,0,1-1.892,1.888,1.9,1.9,0,0,1-1.871-1.844,1.921,1.921,0,0,1,1.872-1.933A1.856,1.856,0,0,1,166.218,253.933Z" transform="translate(-126.068 -225.892)" fill="#4dbfe7" stroke="#fff" stroke-width="1"/>
    <path id="Path_1146" data-name="Path 1146" d="M158.926,260.184a1.861,1.861,0,0,1,1.816,1.962,1.882,1.882,0,1,1-3.757-.22A1.836,1.836,0,0,1,158.926,260.184Z" transform="translate(-124.698 -227.93)" fill="#4dbfe7" stroke="#fff" stroke-width="1"/>
    <path id="Path_1147" data-name="Path 1147" d="M152.568,267.519a1.88,1.88,0,0,1-3.759.1,1.914,1.914,0,0,1,1.835-1.964A1.879,1.879,0,0,1,152.568,267.519Z" transform="translate(-122.651 -229.3)" fill="#4dbfe7" stroke="#fff" stroke-width="1"/>
  </g>
</svg>
