<svg xmlns="http://www.w3.org/2000/svg" width="37.243" height="36.529" viewBox="0 0 37.243 36.529">
  <g id="Group_67" data-name="Group 67" transform="translate(0)">
    <path id="Path_1148" data-name="Path 1148" d="M167.927,269.479c.231,1.924.45,3.745.67,5.567.057.468.137.935.173,1.4a1.19,1.19,0,0,1-1.673,1.319c-1.231-.409-2.474-.793-3.673-1.286a2.335,2.335,0,0,1-1.1-.99c-.759-1.437-1.433-2.922-2.115-4.4-.165-.358-.337-.492-.751-.4a34,34,0,0,1-3.82.7,5.122,5.122,0,0,1-2.252-.346,6.32,6.32,0,0,1-2.86-2.561,12.985,12.985,0,0,1-2.406-7.921,8.828,8.828,0,0,1,.571-2.53,3.168,3.168,0,0,1,1.937-1.848,48,48,0,0,0,17.273-11.691,6.184,6.184,0,0,0,.624-.767,4.939,4.939,0,0,1,6.114-2.043,9.7,9.7,0,0,1,3.593,2.331,24.292,24.292,0,0,1,6.146,10.919,18.963,18.963,0,0,1,.586,9.644,7.4,7.4,0,0,1-1.859,3.6,4.855,4.855,0,0,1-4.2,1.367c-2.3-.193-4.611-.238-6.918-.267C170.679,269.265,169.361,269.4,167.927,269.479Zm5.805-2.666a26.1,26.1,0,0,1-6.745-17.886c-.183.117-.248.146-.3.191a53.15,53.15,0,0,1-15.147,9.4,1.536,1.536,0,0,0-.812,1.035,11.718,11.718,0,0,0-.026,3.084,9.7,9.7,0,0,0,3.038,5.778,1.8,1.8,0,0,0,1.739.532,79.922,79.922,0,0,1,17.54-2.082C173.22,266.861,173.419,266.835,173.732,266.812Zm1.086-2.519a28.478,28.478,0,0,0,2.76,2.194c2.045,1.264,3.687.662,4.558-1.576a10.924,10.924,0,0,0,.628-4.946,24.073,24.073,0,0,0-4.893-12.626,9.825,9.825,0,0,0-3.669-3.15,2.438,2.438,0,0,0-3.069.356c-1.333,1.37-1.424,3.144-1.613,4.94a5.743,5.743,0,0,1,4.266,2.754,13.594,13.594,0,0,1,2.307,4.975C176.646,259.674,176.768,262.094,174.818,264.293Zm-1.453-2.037c1.634-2.655-.935-9.7-3.715-10.169A23.9,23.9,0,0,0,173.365,262.256Zm-7.334,12.325-.61-4.847-2.807.4c.487,1.082.993,2.022,1.332,3.019A2.038,2.038,0,0,0,166.031,274.581Z" transform="translate(-148.113 -241.333)" fill="#4dbfe7"/>
  </g>
</svg>
