<svg xmlns="http://www.w3.org/2000/svg" width="39.618" height="45.701" viewBox="0 0 39.618 45.701">
  <g id="Group_65" data-name="Group 65" transform="translate(0)">
    <path id="Path_1137" data-name="Path 1137" d="M153.873,211.037a14.631,14.631,0,0,1-2.155-.121,4.261,4.261,0,0,1-3.51-3.973c-.1-2.332-.1-4.676,0-7.008a4.349,4.349,0,0,1,4.074-4.067c1.136-.078,2.281-.067,3.421-.036a1.468,1.468,0,0,1,1.562,1.61c.015,4.158.073,8.318-.012,12.475a7.525,7.525,0,0,1-7.414,7.229c-2.445.041-4.892.019-7.337,0a.967.967,0,0,0-1.008.6,4.48,4.48,0,0,1-5.155,2.314,4.561,4.561,0,0,1,.054-8.86,4.465,4.465,0,0,1,5.12,2.384.891.891,0,0,0,.938.557c2.364-.019,4.729.008,7.093-.015A4.333,4.333,0,0,0,153.873,211.037Zm.382-12.177c-.478,0-.827-.007-1.177,0-1.33.032-1.868.569-1.874,1.9-.008,1.843-.015,3.686,0,5.529a1.52,1.52,0,1,0,3.039.062c.034-.676.008-1.355.008-2.032ZM138.989,215.6a1.5,1.5,0,1,0-3,.108,1.5,1.5,0,0,0,3-.108Z" transform="translate(-117.685 -174.507)" fill="#4dbfe7"/>
    <path id="Path_1138" data-name="Path 1138" d="M128.961,163.932c10.709,0,18.909,6.88,20.564,16.343.193,1.1-.262,1.9-1.175,2.059s-1.606-.431-1.814-1.544a16.476,16.476,0,0,0-5.971-10.092,16.765,16.765,0,0,0-26.94,9.777,3.321,3.321,0,0,1-.365,1.065,1.49,1.49,0,0,1-1.8.557,1.518,1.518,0,0,1-.9-1.732,19.863,19.863,0,0,1,18.4-16.432Z" transform="translate(-110.266 -163.932)" fill="#4dbfe7"/>
    <path id="Path_1139" data-name="Path 1139" d="M110.141,202.083c0-1.494-.009-2.987,0-4.48.009-1.2.542-1.749,1.731-1.772.977-.019,1.955-.029,2.932,0a4.467,4.467,0,0,1,4.434,4.334c.082,2.2.077,4.4-.013,6.6a4.457,4.457,0,0,1-4.625,4.294,4.543,4.543,0,0,1-4.455-4.5c-.031-1.493-.005-2.987-.005-4.481Zm3.031-3.192c0,2.583-.021,5.047.012,7.51a1.493,1.493,0,0,0,1.547,1.457,1.512,1.512,0,0,0,1.477-1.53q.032-2.967,0-5.935a1.44,1.44,0,0,0-1.332-1.492A14.857,14.857,0,0,0,113.172,198.891Z" transform="translate(-110.134 -174.509)" fill="#4dbfe7"/>
    <path id="Path_1140" data-name="Path 1140" d="M135.97,170.839a15.515,15.515,0,0,1,6.612,1.521c1.042.489,1.407,1.288,1.018,2.144-.406.894-1.287,1.128-2.351.621a12.045,12.045,0,0,0-10.619-.071c-1.065.482-1.9.294-2.305-.539a1.584,1.584,0,0,1,1.016-2.219A15.95,15.95,0,0,1,135.97,170.839Z" transform="translate(-116.111 -166.223)" fill="#4dbfe7"/>
  </g>
</svg>
