<svg xmlns="http://www.w3.org/2000/svg" width="37.967" height="37.917" viewBox="0 0 37.967 37.917">
  <g id="star" transform="translate(0 0)">
    <path id="Path_690" data-name="Path 690" d="M51.616,29.071a1.115,1.115,0,0,0-.888-.745L39.782,26.664,34.879,16.2a1.111,1.111,0,0,0-2.013,0L27.961,26.648,17.022,28.326a1.113,1.113,0,0,0-.629,1.877l7.948,8.145-1.88,11.52a1.118,1.118,0,0,0,.456,1.089,1.132,1.132,0,0,0,.641.2,1.087,1.087,0,0,0,.539-.14l9.776-5.4,9.776,5.4a1.111,1.111,0,0,0,1.635-1.151L43.4,38.348l7.951-8.15A1.12,1.12,0,0,0,51.616,29.071Z" transform="translate(-14.885 -14.435)" fill="#d87c05"/>
    <path id="Path_691" data-name="Path 691" d="M29.989,38.256a1.186,1.186,0,0,1-.572-.147L18.989,32.344,8.56,38.109a1.187,1.187,0,0,1-1.744-1.232L8.821,24.588.339,15.9a1.187,1.187,0,0,1,.669-2l11.674-1.785L17.914.966a1.236,1.236,0,0,1,2.15,0l5.221,11.143,11.674,1.785a1.187,1.187,0,0,1,.669,2l-8.482,8.691,2.005,12.289a1.187,1.187,0,0,1-1.172,1.379Zm-11-8.454a1.186,1.186,0,0,1,.574.147l8.862,4.9L26.716,24.379a1.187,1.187,0,0,1,.323-1.018l7.286-7.469L24.31,14.361a1.187,1.187,0,0,1-.895-.669L18.989,4.263l-4.426,9.429a1.187,1.187,0,0,1-.895.669L3.652,15.892l7.286,7.469a1.187,1.187,0,0,1,.323,1.018L9.552,34.848l8.862-4.9A1.186,1.186,0,0,1,18.989,29.8Z" transform="translate(-0.001 -0.341)" fill="#d87c05"/>
  </g>
</svg>
