<svg xmlns="http://www.w3.org/2000/svg" width="78.507" height="78.507" viewBox="0 0 78.507 78.507">
  <path id="teamwork" d="M69.869,16.3a9.564,9.564,0,1,0-13.588,0,14.431,14.431,0,0,0-1.329.807,29.106,29.106,0,0,0-32.4,0,14.465,14.465,0,0,0-1.329-.807,9.564,9.564,0,1,0-13.588,0A14.444,14.444,0,0,0,0,29.025v4.864A2.271,2.271,0,0,0,2.271,36.16h7.893A29.169,29.169,0,0,0,24.811,66.644a14.4,14.4,0,0,0-.489,3.728v4.864a2.271,2.271,0,0,0,2.271,2.271H50.914a2.271,2.271,0,0,0,2.271-2.271V70.372a14.4,14.4,0,0,0-.489-3.728A29.169,29.169,0,0,0,67.343,36.16h7.893a2.271,2.271,0,0,0,2.271-2.271V29.025A14.445,14.445,0,0,0,69.869,16.3ZM63.075,4.541A5.026,5.026,0,1,1,58.05,9.567a5.032,5.032,0,0,1,5.026-5.026Zm-48.644,0A5.026,5.026,0,1,1,9.406,9.567,5.032,5.032,0,0,1,14.432,4.541ZM4.541,31.618V29.025c.545-13.124,19.24-13.114,19.78,0v2.594Zm44.1,41.347H28.863V70.372c.545-13.124,19.24-13.114,19.78,0v2.594ZM33.728,50.914a5.026,5.026,0,1,1,5.026,5.026A5.032,5.032,0,0,1,33.728,50.914ZM50.83,62.48a14.537,14.537,0,0,0-5.282-4.837,9.564,9.564,0,1,0-13.588,0,14.538,14.538,0,0,0-5.282,4.837A24.621,24.621,0,0,1,14.788,36.16h11.8a2.271,2.271,0,0,0,2.271-2.271V29.025a14.357,14.357,0,0,0-2.926-8.7,24.563,24.563,0,0,1,25.633,0,14.357,14.357,0,0,0-2.926,8.7v4.864a2.271,2.271,0,0,0,2.271,2.271h11.8A24.621,24.621,0,0,1,50.83,62.48ZM72.966,31.618H53.185V29.025c.545-13.124,19.24-13.114,19.78,0Z" transform="translate(0.5 0.5)" fill="#0984e3" stroke="#dbfcff" stroke-width="1"/>
</svg>
