<svg xmlns="http://www.w3.org/2000/svg" width="33.306" height="33.306" viewBox="0 0 33.306 33.306">
  <path id="fi-rr-time-quarter-to" d="M33.306,16.653A16.653,16.653,0,1,1,0,16.653a1.388,1.388,0,0,1,2.775,0A13.877,13.877,0,1,0,16.653,2.775a1.388,1.388,0,0,1,0-2.775A16.671,16.671,0,0,1,33.306,16.653ZM14.262,15.265H11.1a1.388,1.388,0,1,0,0,2.775h3.16a2.767,2.767,0,1,0,3.779-3.779V9.714a1.388,1.388,0,1,0-2.775,0v4.548a2.775,2.775,0,0,0-1,1ZM2.535,12.19A1.388,1.388,0,1,0,1.148,10.8,1.388,1.388,0,0,0,2.535,12.19ZM5.858,7.226A1.388,1.388,0,1,0,4.47,5.838,1.388,1.388,0,0,0,5.858,7.226ZM10.8,3.943A1.388,1.388,0,1,0,9.407,2.555,1.388,1.388,0,0,0,10.8,3.943Z" fill="#d87c05"/>
</svg>
